<svg style="position: absolute; width: 0; height: 0; overflow: hidden;" version="1.1" xmlns="http://www.w3.org/2000/svg" xmlns:xlink="http://www.w3.org/1999/xlink">
    <defs>
        <symbol id="icon-tag" viewBox="0 0 24 28">
            <title>tag</title>
            <path d="M7 7c0-1.109-0.891-2-2-2s-2 0.891-2 2 0.891 2 2 2 2-0.891 2-2zM23.672 16c0 0.531-0.219 1.047-0.578 1.406l-7.672 7.688c-0.375 0.359-0.891 0.578-1.422 0.578s-1.047-0.219-1.406-0.578l-11.172-11.188c-0.797-0.781-1.422-2.297-1.422-3.406v-6.5c0-1.094 0.906-2 2-2h6.5c1.109 0 2.625 0.625 3.422 1.422l11.172 11.156c0.359 0.375 0.578 0.891 0.578 1.422z"></path>
        </symbol>
        <symbol id="icon-add" viewBox="0 0 24 24">
            <title>add</title>
            <path d="M18.984 12.984h-6v6h-1.969v-6h-6v-1.969h6v-6h1.969v6h6v1.969z"></path>
        </symbol>
        <symbol id="icon-arrow_back" viewBox="0 0 24 24">
            <title>arrow_back</title>
            <path d="M20.016 11.016v1.969h-12.188l5.578 5.625-1.406 1.406-8.016-8.016 8.016-8.016 1.406 1.406-5.578 5.625h12.188z"></path>
        </symbol>
        <symbol id="icon-arrow_downward" viewBox="0 0 24 24">
            <title>arrow_downward</title>
            <path d="M20.016 12l-8.016 8.016-8.016-8.016 1.453-1.406 5.578 5.578v-12.188h1.969v12.188l5.625-5.578z"></path>
        </symbol>
        <symbol id="icon-arrow_forward" viewBox="0 0 24 24">
            <title>arrow_forward</title>
            <path d="M12 3.984l8.016 8.016-8.016 8.016-1.406-1.406 5.578-5.625h-12.188v-1.969h12.188l-5.578-5.625z"></path>
        </symbol>
        <symbol id="icon-arrow_upward" viewBox="0 0 24 24">
            <title>arrow_upward</title>
            <path d="M3.984 12l8.016-8.016 8.016 8.016-1.453 1.406-5.578-5.578v12.188h-1.969v-12.188l-5.625 5.578z"></path>
        </symbol>
        <symbol id="icon-close" viewBox="0 0 24 24">
            <title>close</title>
            <path d="M18.984 6.422l-5.578 5.578 5.578 5.578-1.406 1.406-5.578-5.578-5.578 5.578-1.406-1.406 5.578-5.578-5.578-5.578 1.406-1.406 5.578 5.578 5.578-5.578z"></path>
        </symbol>
        <symbol id="icon-cloud_off" viewBox="0 0 24 24">
            <title>cloud_off</title>
            <path d="M7.734 9.984h-1.734c-2.203 0-3.984 1.828-3.984 4.031s1.781 3.984 3.984 3.984h9.75zM3 5.25l1.266-1.266 16.734 16.734-1.266 1.266-2.016-1.969h-11.719c-3.328 0-6-2.672-6-6 0-3.234 2.578-5.859 5.766-6zM19.359 10.031c2.578 0.188 4.641 2.344 4.641 4.969 0 1.688-0.844 3.188-2.109 4.078l-1.453-1.453c0.938-0.516 1.547-1.5 1.547-2.625 0-1.641-1.359-3-3-3h-1.5v-0.516c0-3.047-2.438-5.484-5.484-5.484-0.938 0-1.781 0.188-2.531 0.609l-1.5-1.453c1.172-0.75 2.531-1.172 4.031-1.172 3.656 0 6.656 2.578 7.359 6.047z"></path>
        </symbol>
        <symbol id="icon-done" viewBox="0 0 24 24">
            <title>done</title>
            <path d="M9 16.219l10.594-10.641 1.406 1.406-12 12-5.578-5.578 1.359-1.406z"></path>
        </symbol>
        <symbol id="icon-functions" viewBox="0 0 24 24">
            <title>functions</title>
            <path d="M18 3.984v3h-6.984l4.969 5.016-4.969 5.016h6.984v3h-12v-2.016l6.516-6-6.516-6v-2.016h12z"></path>
        </symbol>
        <symbol id="icon-people" viewBox="0 0 24 24">
            <title>people</title>
            <path d="M15.984 12.984c2.344 0 7.031 1.172 7.031 3.516v2.484h-6v-2.484c0-1.5-0.797-2.625-1.969-3.469 0.328-0.047 0.656-0.047 0.938-0.047zM8.016 12.984c2.344 0 6.984 1.172 6.984 3.516v2.484h-14.016v-2.484c0-2.344 4.688-3.516 7.031-3.516zM8.016 11.016c-1.641 0-3-1.359-3-3s1.359-3 3-3 2.953 1.359 2.953 3-1.313 3-2.953 3zM15.984 11.016c-1.641 0-3-1.359-3-3s1.359-3 3-3 3 1.359 3 3-1.359 3-3 3z"></path>
        </symbol>
        <symbol id="icon-keyboard_arrow_down" viewBox="0 0 24 24">
            <title>keyboard_arrow_down</title>
            <path d="M7.406 7.828l4.594 4.594 4.594-4.594 1.406 1.406-6 6-6-6z"></path>
        </symbol>
        <symbol id="icon-keyboard_arrow_left" viewBox="0 0 24 24">
            <title>keyboard_arrow_left</title>
            <path d="M15.422 16.078l-1.406 1.406-6-6 6-6 1.406 1.406-4.594 4.594z"></path>
        </symbol>
        <symbol id="icon-keyboard_arrow_right" viewBox="0 0 24 24">
            <title>keyboard_arrow_right</title>
            <path d="M8.578 16.359l4.594-4.594-4.594-4.594 1.406-1.406 6 6-6 6z"></path>
        </symbol>
        <symbol id="icon-keyboard_arrow_up" viewBox="0 0 24 24">
            <title>keyboard_arrow_up</title>
            <path d="M7.406 15.422l-1.406-1.406 6-6 6 6-1.406 1.406-4.594-4.594z"></path>
        </symbol>
        <symbol id="icon-keyboard_backspace" viewBox="0 0 24 24">
            <title>keyboard_backspace</title>
            <path d="M21 11.016v1.969h-14.156l3.563 3.609-1.406 1.406-6-6 6-6 1.406 1.406-3.563 3.609h14.156z"></path>
        </symbol>
        <symbol id="icon-menu" viewBox="0 0 24 24">
            <title>menu</title>
            <path d="M3 6h18v2.016h-18v-2.016zM3 12.984v-1.969h18v1.969h-18zM3 18v-2.016h18v2.016h-18z"></path>
        </symbol>
        <symbol id="icon-more_vert" viewBox="0 0 24 24">
            <title>more_vert</title>
            <path d="M12 15.984c1.078 0 2.016 0.938 2.016 2.016s-0.938 2.016-2.016 2.016-2.016-0.938-2.016-2.016 0.938-2.016 2.016-2.016zM12 9.984c1.078 0 2.016 0.938 2.016 2.016s-0.938 2.016-2.016 2.016-2.016-0.938-2.016-2.016 0.938-2.016 2.016-2.016zM12 8.016c-1.078 0-2.016-0.938-2.016-2.016s0.938-2.016 2.016-2.016 2.016 0.938 2.016 2.016-0.938 2.016-2.016 2.016z"></path>
        </symbol>
        <symbol id="icon-person" viewBox="0 0 24 24">
            <title>person</title>
            <path d="M12 14.016c2.672 0 8.016 1.313 8.016 3.984v2.016h-16.031v-2.016c0-2.672 5.344-3.984 8.016-3.984zM12 12c-2.203 0-3.984-1.781-3.984-3.984s1.781-4.031 3.984-4.031 3.984 1.828 3.984 4.031-1.781 3.984-3.984 3.984z"></path>
        </symbol>
        <symbol id="icon-person_add" viewBox="0 0 24 24">
            <title>person_add</title>
            <path d="M15 14.016c2.672 0 8.016 1.313 8.016 3.984v2.016h-16.031v-2.016c0-2.672 5.344-3.984 8.016-3.984zM6 9.984h3v2.016h-3v3h-2.016v-3h-3v-2.016h3v-3h2.016v3zM15 12c-2.203 0-3.984-1.781-3.984-3.984s1.781-4.031 3.984-4.031 3.984 1.828 3.984 4.031-1.781 3.984-3.984 3.984z"></path>
        </symbol>
        <symbol id="icon-mode_edit" viewBox="0 0 24 24">
            <title>mode_edit</title>
            <path d="M20.719 7.031l-1.828 1.828-3.75-3.75 1.828-1.828c0.375-0.375 1.031-0.375 1.406 0l2.344 2.344c0.375 0.375 0.375 1.031 0 1.406zM3 17.25l11.063-11.063 3.75 3.75-11.063 11.063h-3.75v-3.75z"></path>
        </symbol>
    </defs>
</svg>
